<?xml version="1.0" standalone="no"?>
<!DOCTYPE svg PUBLIC "-//W3C//DTD SVG 20010904//EN"
 "http://www.w3.org/TR/2001/REC-SVG-20010904/DTD/svg10.dtd">
<svg version="1.0" xmlns="http://www.w3.org/2000/svg"
 width="1085.000000pt" height="1085.000000pt" viewBox="0 0 1085.000000 1085.000000"
 preserveAspectRatio="xMidYMid meet">
<metadata>
Created by potrace 1.14, written by Peter Selinger 2001-2017
</metadata>
<g transform="translate(0.000000,1085.000000) scale(0.100000,-0.100000)"
fill="#000000" stroke="none">
<path d="M5202 9445 c-23 -10 -34 -23 -38 -45 l-6 -30 -112 0 c-63 0 -242 -15
-416 -34 -168 -20 -362 -40 -431 -45 -97 -7 -148 -17 -220 -41 -154 -51 -285
-121 -400 -210 -128 -100 -183 -129 -324 -169 -138 -40 -202 -71 -346 -168
-62 -42 -168 -113 -234 -158 -80 -53 -133 -97 -160 -131 -87 -111 -139 -173
-223 -266 -49 -54 -101 -122 -117 -150 -15 -29 -68 -115 -117 -191 -49 -76
-108 -177 -129 -225 -22 -48 -58 -121 -79 -162 -21 -41 -56 -127 -78 -190 -58
-169 -109 -293 -163 -401 -68 -137 -220 -669 -248 -871 -16 -119 19 -312 81
-437 34 -68 51 -91 96 -125 30 -23 73 -56 96 -75 53 -44 167 -96 231 -106 55
-8 367 -8 388 1 11 4 15 -31 21 -188 3 -106 11 -220 16 -253 6 -33 14 -150 19
-260 10 -205 30 -326 58 -357 21 -24 75 -23 97 1 16 18 17 31 7 153 -21 256
-42 603 -40 653 1 28 -3 60 -9 72 -7 12 -12 58 -12 102 0 69 -3 84 -21 102
-11 11 -18 24 -14 27 4 4 19 -7 33 -24 36 -42 59 -52 150 -70 130 -25 300 -19
461 17 43 9 44 9 91 -35 27 -25 61 -48 77 -51 15 -4 34 -8 41 -11 12 -3 105
22 182 51 19 7 130 58 245 112 219 104 339 154 414 173 78 20 147 73 196 149
25 38 45 74 45 80 0 23 24 20 97 -13 43 -19 96 -42 118 -51 57 -23 90 -59 115
-124 12 -31 37 -94 55 -141 28 -70 35 -103 40 -190 5 -90 9 -108 26 -122 45
-38 170 -16 333 59 76 34 117 46 176 52 152 16 238 82 380 291 154 229 254
427 279 550 46 229 71 387 71 443 0 59 -3 68 -26 86 -30 24 -43 26 -78 10 -32
-15 -46 -51 -45 -114 1 -63 -66 -431 -90 -495 -42 -109 -211 -395 -304 -514
-17 -22 -57 -56 -89 -76 -50 -33 -67 -38 -142 -45 -72 -6 -97 -13 -163 -47
-43 -22 -100 -47 -127 -55 -59 -18 -66 -11 -66 59 0 42 -31 147 -50 173 -5 6
-15 33 -23 61 -48 163 -108 227 -280 298 -171 71 -160 53 -126 193 53 221 60
377 26 563 -9 47 -19 133 -22 191 l-7 107 35 11 c28 10 34 16 31 34 -2 12 -2
16 2 10 3 -7 14 -13 25 -13 14 0 19 -7 19 -27 0 -16 -4 -34 -9 -42 -7 -10 -4
-19 7 -27 15 -11 15 -14 -2 -33 -11 -12 -25 -21 -32 -21 -7 0 -16 -5 -20 -12
-5 -7 -2 -9 8 -5 11 4 18 -2 22 -19 4 -13 11 -24 17 -24 6 0 8 9 4 20 -4 11
-2 20 4 20 6 0 11 -5 11 -11 0 -8 4 -8 14 0 12 10 13 8 9 -11 -3 -13 -14 -34
-24 -48 -20 -30 -11 -48 35 -71 26 -12 38 -38 15 -31 -15 4 -10 -16 6 -22 8
-3 15 -15 15 -26 0 -11 4 -20 9 -20 5 0 12 -13 16 -30 3 -16 15 -32 25 -35 10
-3 19 -14 19 -23 1 -39 14 -82 29 -94 13 -11 15 -10 9 4 -4 12 -2 15 9 11 17
-6 18 -19 3 -29 -6 -3 -9 -15 -6 -25 3 -10 0 -20 -6 -22 -6 -2 -8 -11 -3 -22
5 -14 9 -16 18 -7 9 9 16 8 30 -5 20 -18 23 -33 7 -33 -12 0 -38 -29 -39 -42
0 -5 5 -8 10 -8 6 0 10 7 10 16 0 10 6 14 14 11 8 -3 22 3 32 14 20 23 39 25
30 4 -3 -8 -1 -15 5 -15 6 0 7 14 4 34 -6 28 -3 36 14 46 28 15 50 2 27 -16
-10 -7 -15 -17 -11 -23 10 -17 25 -13 19 4 -7 18 -4 18 32 5 23 -9 25 -12 12
-23 -17 -13 -31 -47 -20 -47 12 1 42 27 36 32 -2 3 2 8 11 11 8 4 15 1 15 -6
-1 -17 -32 -53 -52 -60 -21 -8 -24 -27 -4 -27 7 0 19 -7 27 -16 11 -13 9 -14
-17 -9 -26 6 -27 5 -11 -8 19 -16 23 -67 6 -84 -17 -17 23 -83 51 -83 6 0 8
-5 4 -12 -12 -19 -14 -58 -3 -58 6 0 8 -9 4 -20 -7 -21 10 -61 24 -57 5 1 8 0
8 -3 -1 -3 6 -16 16 -30 9 -13 17 -33 17 -44 0 -15 3 -17 12 -8 6 6 11 25 10
42 0 16 4 30 9 30 5 0 9 -5 9 -11 0 -7 11 -8 29 -4 37 8 51 -12 15 -21 -39
-10 -64 -35 -64 -62 0 -21 2 -22 15 -12 8 7 15 19 15 27 0 8 6 13 13 10 6 -2
25 5 40 16 16 10 31 16 34 13 3 -3 12 3 20 14 8 11 21 20 29 20 8 0 14 9 14
20 0 12 -6 20 -13 18 -7 -2 -14 2 -15 7 -1 6 5 10 14 10 9 0 23 9 32 20 10 11
25 19 35 17 10 -2 24 4 31 14 9 12 15 14 20 6 9 -15 46 -16 46 -1 0 5 4 8 8 5
15 -9 60 39 63 69 2 17 12 36 22 43 9 7 15 17 12 22 -3 4 6 10 18 14 19 4 26
16 36 63 14 67 30 103 45 103 12 0 18 10 49 77 10 21 31 63 46 93 18 34 28 66
26 84 -5 43 19 84 52 88 14 2 29 9 31 17 3 10 -1 12 -18 8 -21 -5 -21 -5 -4
14 9 10 23 19 31 19 7 0 13 10 13 23 1 32 25 61 46 53 11 -4 22 1 31 14 11 16
24 20 47 18 24 -2 33 2 41 20 11 26 23 28 31 7 7 -18 30 -20 38 -2 3 6 3 2 0
-10 -3 -13 -1 -23 5 -23 6 0 11 5 11 11 0 5 5 7 10 4 6 -3 10 1 10 10 0 11 6
15 18 11 9 -3 39 -10 65 -15 39 -7 50 -6 54 5 8 22 35 -4 28 -27 -4 -11 -2
-19 4 -19 6 0 11 -7 11 -15 0 -9 9 -15 21 -15 15 0 25 -11 36 -40 9 -22 20
-40 24 -40 10 0 42 -67 44 -95 2 -10 8 -21 14 -23 6 -2 11 -17 11 -33 0 -19 5
-29 15 -29 15 0 16 -3 19 -39 0 -11 6 -25 13 -32 8 -8 9 -18 1 -35 -8 -17 -8
-31 0 -49 7 -15 8 -27 2 -30 -14 -9 -12 -25 3 -25 7 0 18 -10 26 -21 11 -19
11 -21 -3 -16 -9 4 -16 4 -16 1 0 -3 14 -10 30 -15 17 -6 30 -17 30 -25 0 -8
-3 -13 -7 -13 -26 4 -31 -2 -20 -25 8 -16 17 -22 32 -18 18 5 18 3 6 -11 -11
-14 -11 -18 3 -23 9 -3 16 -12 16 -20 0 -8 6 -14 13 -14 7 0 25 -12 40 -26 22
-20 26 -29 16 -40 -6 -8 -8 -14 -4 -14 4 0 2 -7 -5 -15 -10 -12 -10 -18 0 -30
10 -12 10 -24 1 -55 -8 -28 -9 -46 -2 -58 7 -11 10 -13 11 -3 0 10 3 11 14 2
7 -6 21 -9 30 -5 12 5 16 0 16 -17 0 -13 12 -34 27 -46 20 -18 24 -26 15 -35
-17 -17 -15 -28 7 -28 11 0 22 -9 26 -20 3 -11 11 -19 17 -17 5 1 15 -7 21
-18 7 -10 18 -25 25 -33 7 -7 9 -18 6 -24 -4 -6 2 -5 15 1 17 10 22 9 27 -4 7
-18 40 -20 47 -2 2 7 8 8 13 3 5 -5 4 -11 -3 -13 -13 -5 -18 -33 -7 -33 4 0
13 8 20 18 12 15 12 15 7 -5 -7 -28 8 -30 32 -3 10 11 24 20 32 20 7 0 13 9
13 20 0 11 -5 20 -11 20 -5 0 -8 -4 -5 -9 3 -5 -3 -11 -14 -14 -23 -6 -23 -6
-10 27 5 14 16 26 25 26 8 0 15 7 15 15 0 8 7 15 17 15 9 0 13 3 10 7 -4 3 1
12 11 20 12 10 14 16 5 19 -7 3 -13 11 -13 17 0 17 48 67 63 67 7 -1 2 -9 -10
-19 -23 -19 -32 -61 -13 -61 6 0 10 9 10 20 0 17 3 19 18 11 14 -7 20 -4 29
15 9 20 8 26 -5 33 -26 15 -8 23 23 11 18 -7 25 -15 21 -26 -4 -12 -1 -14 14
-9 11 4 20 2 20 -4 0 -5 16 -13 35 -17 25 -4 35 -11 35 -25 0 -11 5 -19 10
-19 6 0 10 7 10 15 0 8 7 15 16 15 12 0 15 6 10 23 -3 14 1 32 9 43 12 16 14
17 15 3 0 -15 15 -24 58 -34 7 -2 12 6 12 18 1 28 23 58 47 62 10 2 20 4 23 5
3 1 11 3 19 4 8 0 15 9 17 19 3 24 34 47 59 45 11 -1 26 1 33 5 8 6 12 0 12
-19 0 -26 0 -27 20 -9 11 10 20 24 20 31 0 24 19 25 41 3 19 -19 23 -20 31 -5
12 21 27 20 44 -1 12 -16 13 -16 14 -2 0 14 9 16 49 12 30 -3 52 0 56 7 5 8
11 8 20 0 9 -7 16 -6 24 4 7 8 21 12 33 8 18 -4 20 -2 15 17 -4 18 -2 21 14
16 10 -3 24 -1 31 5 67 56 73 65 75 104 1 29 8 47 26 62 20 17 36 46 42 74 1
3 5 16 9 29 6 16 4 26 -5 32 -11 7 -11 9 -1 10 6 1 17 3 22 4 6 1 15 3 20 4 6
0 11 13 11 29 1 15 3 20 6 11 8 -30 44 -38 88 -18 21 10 43 15 47 13 4 -3 8 0
8 6 0 6 4 8 10 5 6 -3 7 1 4 9 -3 9 -11 13 -17 9 -7 -4 -8 0 -4 11 4 10 7 20
7 22 0 2 5 4 10 4 6 0 10 -7 10 -15 0 -14 12 -19 33 -16 4 0 7 -1 7 -4 0 -13
-79 -216 -143 -370 -71 -169 -72 -171 -157 -259 -47 -49 -128 -126 -180 -171
-52 -45 -143 -128 -202 -183 -58 -55 -128 -112 -155 -125 -70 -36 -200 -75
-274 -82 -107 -12 -319 -54 -402 -81 -68 -23 -91 -25 -191 -22 -147 4 -159 12
-200 129 -26 74 -30 103 -35 235 -4 107 -10 156 -20 168 -8 9 -11 19 -8 23 3
3 0 21 -8 39 -8 19 -11 48 -8 67 4 26 -10 70 -65 202 -39 94 -73 185 -77 203
-8 38 -53 72 -97 72 -59 0 -87 -86 -49 -152 10 -18 24 -57 30 -87 6 -30 28
-85 47 -122 33 -62 35 -71 25 -101 -11 -31 -8 -41 39 -133 l50 -100 0 -100 c0
-70 6 -123 20 -175 51 -187 75 -229 159 -278 39 -23 56 -26 180 -30 119 -4
146 -2 214 17 43 13 88 24 99 26 12 3 35 9 52 14 45 14 177 38 279 51 95 12
229 55 318 101 30 17 109 80 175 142 66 62 146 134 178 162 l59 50 27 -33 c57
-68 204 -276 251 -354 91 -150 115 -288 107 -611 -5 -192 -4 -198 16 -213 11
-7 38 -14 59 -14 41 0 47 4 152 121 22 25 66 64 96 86 30 22 118 106 195 185
129 134 144 147 209 172 79 31 215 43 276 25 39 -12 66 -56 119 -193 45 -116
60 -189 60 -304 0 -94 -3 -110 -31 -175 -78 -182 -86 -193 -193 -266 -78 -54
-147 -72 -261 -70 -164 3 -248 22 -293 66 -27 28 -52 29 -86 2 -22 -17 -26
-29 -26 -68 0 -46 -43 -208 -80 -302 -10 -26 -35 -73 -56 -104 -51 -76 -101
-158 -171 -280 -72 -126 -110 -176 -171 -225 -27 -21 -60 -58 -75 -82 -27 -46
-244 -247 -315 -292 -85 -53 -208 -149 -279 -217 -54 -52 -97 -81 -170 -117
-54 -26 -138 -70 -188 -97 -49 -27 -144 -68 -210 -91 -66 -23 -138 -49 -160
-57 -22 -8 -101 -23 -175 -32 -114 -15 -145 -23 -204 -52 -54 -27 -78 -34
-110 -31 -23 3 -67 -4 -101 -14 -49 -15 -93 -18 -250 -18 -104 0 -266 -2 -360
-5 -121 -3 -188 -1 -232 8 -53 12 -67 11 -95 -1 -30 -14 -80 -17 -333 -23
-103 -2 -404 21 -520 40 -314 52 -543 110 -652 165 -72 36 -200 79 -271 91
-23 4 -66 23 -95 42 -29 20 -77 47 -107 60 -51 23 -193 92 -490 237 -63 30
-136 62 -161 69 -114 35 -298 209 -377 359 -24 46 -51 97 -61 113 -32 57 -54
142 -73 287 -10 80 -9 93 10 153 12 36 22 75 22 86 0 11 14 40 31 65 16 24 37
61 46 82 8 20 35 67 59 103 49 74 54 99 24 129 -53 53 -108 10 -195 -148 -92
-167 -105 -195 -105 -226 0 -18 -4 -36 -8 -41 -5 -6 -14 -29 -22 -52 -10 -34
-10 -61 0 -155 8 -62 14 -138 14 -168 1 -48 7 -66 47 -130 26 -41 68 -116 94
-166 34 -67 71 -118 136 -188 49 -53 89 -100 89 -105 0 -4 20 -18 45 -31 25
-13 75 -48 111 -79 92 -78 95 -79 134 -86 19 -3 84 -39 145 -79 143 -96 274
-161 354 -177 43 -8 74 -21 95 -40 37 -32 135 -63 179 -56 22 3 38 -1 52 -13
18 -17 65 -33 295 -101 36 -11 121 -32 190 -48 344 -81 519 -110 676 -111 54
-1 143 -8 197 -16 76 -11 108 -12 145 -3 29 7 179 13 397 14 896 7 832 5 930
29 50 13 122 36 161 53 51 22 104 35 198 47 91 12 151 26 214 50 48 18 123 45
167 60 44 15 121 49 170 76 50 28 137 73 193 101 82 40 120 66 182 125 42 41
129 110 191 154 63 44 134 94 159 112 39 29 276 254 352 334 53 56 155 200
180 255 14 31 42 80 62 109 20 29 43 67 52 85 8 18 23 41 32 51 51 55 142 270
142 334 0 14 6 35 14 46 14 19 19 20 83 10 120 -17 330 -14 393 7 98 33 155
67 233 139 66 59 83 83 121 161 80 167 79 164 84 287 7 181 -24 308 -125 523
-43 90 -60 108 -128 138 -44 20 -65 22 -178 20 l-128 -2 46 91 c25 50 55 114
65 143 11 29 33 70 49 92 85 118 103 156 141 303 21 81 48 173 59 204 22 60
41 228 41 370 0 42 5 80 10 83 19 12 11 73 -11 88 -15 11 -33 62 -74 218 -29
112 -60 223 -68 246 -9 23 -28 95 -42 160 -60 271 -74 314 -159 488 -46 94
-102 208 -124 255 -22 47 -58 110 -81 140 -49 65 -315 300 -386 340 -56 33
-214 197 -320 335 -75 98 -305 330 -388 392 -200 151 -397 289 -481 337 -27
16 -94 42 -150 57 -56 16 -128 38 -161 49 -33 11 -108 29 -167 39 -59 11 -131
27 -160 35 -29 9 -69 18 -89 20 -20 3 -58 12 -85 21 -35 11 -98 16 -214 18
-175 3 -176 4 -258 36 -29 12 -75 21 -101 21 -27 0 -65 7 -86 15 -30 13 -43
14 -72 4 -27 -9 -48 -8 -92 1 -42 9 -82 9 -156 1 -55 -6 -152 -13 -216 -17
-111 -6 -117 -6 -165 20 -54 29 -102 32 -152 11z m637 -176 c25 -18 37 -20 97
-14 161 15 235 11 309 -18 64 -24 82 -27 218 -27 110 0 169 -5 230 -19 144
-34 179 -42 322 -71 77 -16 167 -38 200 -49 33 -10 92 -29 130 -40 103 -31
153 -60 382 -226 161 -116 237 -179 339 -280 126 -126 167 -175 144 -175 -6 0
-15 11 -20 24 -5 15 -23 29 -44 37 -20 7 -36 20 -36 28 0 11 -4 11 -19 -3 -18
-17 -39 -7 -27 13 3 4 -5 6 -17 4 -14 -3 -29 2 -36 11 -8 9 -17 16 -21 16 -4
0 -26 18 -48 40 -22 22 -49 40 -60 40 -11 0 -30 12 -41 28 -12 15 -25 32 -31
39 -5 7 -10 17 -10 24 0 8 -4 8 -15 -1 -20 -17 -45 -5 -45 20 0 23 -31 41 -38
22 -6 -20 -22 -3 -22 25 0 22 -3 24 -25 19 -14 -4 -25 -2 -25 4 0 5 -6 10 -14
10 -7 0 -25 11 -40 25 -15 14 -38 25 -52 25 -13 0 -24 5 -24 10 0 6 -6 10 -14
10 -7 0 -24 10 -37 23 -23 20 -36 24 -110 27 -17 1 -31 11 -42 29 -13 23 -24
28 -54 28 -21 0 -55 10 -75 21 -21 12 -45 19 -54 15 -9 -3 -20 0 -25 8 -8 12
-11 12 -19 -1 -8 -13 -10 -12 -10 3 0 21 -23 22 -44 2 -14 -14 -17 -14 -34 3
-13 13 -28 18 -46 15 -14 -3 -26 -1 -26 5 0 12 -47 26 -74 23 -11 -2 -16 2
-12 8 4 6 1 11 -7 11 -8 0 -18 -7 -21 -16 -3 -9 -12 -14 -20 -11 -7 3 -19 0
-25 -6 -8 -8 -11 -8 -11 1 0 7 -9 12 -19 12 -10 0 -21 7 -25 15 -7 19 -30 19
-46 0 -9 -11 -17 -12 -31 -4 -11 5 -25 9 -32 8 -26 -3 -36 2 -42 22 -5 16 -9
18 -21 8 -11 -9 -21 -9 -42 0 -15 7 -29 12 -31 11 -2 -1 -7 3 -11 9 -3 7 -14
9 -23 5 -9 -3 -14 -10 -11 -15 8 -14 -4 -11 -31 7 -13 9 -29 13 -34 10 -5 -4
-26 3 -45 14 -20 11 -36 16 -36 10 0 -10 -70 -2 -84 11 -8 7 -36 -4 -66 -28
-13 -10 -21 -8 -43 13 -15 14 -27 29 -27 34 0 6 -7 10 -15 10 -8 0 -15 -4 -15
-9 0 -5 -9 -11 -20 -14 -14 -3 -20 0 -20 10 0 12 -7 14 -30 10 -16 -4 -32 -2
-36 4 -3 6 -18 8 -32 4 -15 -4 -28 -1 -33 6 -4 7 -19 13 -34 15 -15 2 -35 10
-45 19 -15 14 -21 14 -40 3 -18 -10 -24 -10 -27 0 -3 6 -17 12 -32 12 -15 0
-32 5 -37 10 -8 8 -19 7 -38 -1 -19 -9 -30 -10 -34 -2 -9 13 -45 13 -54 -1 -6
-8 -8 -8 -8 1 0 6 -8 9 -17 7 -10 -3 -27 2 -38 9 -17 13 -11 15 70 21 50 4
124 10 165 15 122 13 139 12 169 -10z m-429 -3 c0 -2 -7 -9 -15 -16 -12 -10
-15 -10 -15 4 0 9 7 16 15 16 8 0 15 -2 15 -4z m-399 -53 c-13 -3 -31 -12 -39
-20 -8 -8 -26 -13 -39 -10 -12 2 -23 0 -23 -4 0 -5 -7 -9 -15 -9 -25 0 -149
-42 -166 -57 -18 -15 -39 -17 -39 -3 0 6 -9 6 -26 0 -14 -6 -29 -8 -34 -5 -10
6 -76 -21 -85 -35 -3 -5 -18 -7 -34 -4 -18 4 -44 -2 -71 -15 -30 -14 -47 -18
-55 -11 -9 7 -16 6 -25 -5 -13 -16 -42 -20 -54 -8 -13 13 -41 12 -56 -2 -18
-16 -88 -15 -98 2 -9 14 -101 1 -112 -17 -5 -9 -9 -9 -15 -1 -4 8 -26 10 -67
5 -51 -6 -60 -5 -53 7 11 18 -26 -10 -38 -28 -4 -7 -28 -13 -53 -13 -25 0 -56
-7 -70 -16 -13 -9 -27 -15 -30 -12 -14 15 171 111 301 158 71 25 116 33 215
41 164 12 302 25 485 48 128 16 366 27 296 14z m109 -2 c0 -15 -28 -20 -39 -8
-7 10 -4 13 15 15 13 1 24 -2 24 -7z m-2040 -591 c-6 -11 -16 -20 -22 -20 -6
0 -19 -7 -29 -16 -9 -8 -20 -11 -23 -6 -3 5 11 21 32 35 46 31 56 33 42 7z
m-84 -52 c4 -7 3 -8 -4 -4 -6 3 -16 -3 -22 -14 -6 -11 -16 -18 -22 -14 -7 4
-2 14 13 25 29 22 26 22 35 7z m-101 -74 c-20 -13 -40 -24 -46 -24 -6 0 -7 -6
-3 -12 4 -7 4 -10 0 -6 -11 9 -64 -40 -72 -66 -7 -22 -41 -56 -56 -56 -4 0 -8
-6 -8 -14 0 -7 -8 -20 -17 -27 -14 -12 -16 -12 -8 0 5 10 4 12 -4 7 -6 -4 -9
-11 -6 -16 3 -5 -11 -26 -30 -47 -20 -21 -33 -30 -29 -20 13 36 -7 15 -31 -33
-14 -27 -30 -50 -35 -50 -5 0 -16 -12 -24 -27 -8 -16 -16 -23 -16 -18 0 6 -7
-5 -15 -22 -8 -18 -19 -33 -25 -33 -5 0 -10 -7 -10 -15 0 -8 -5 -15 -11 -15
-5 0 -7 -4 -4 -10 7 -12 -22 -59 -53 -84 -13 -10 -21 -21 -18 -23 6 -6 -55
-63 -66 -63 -5 0 -8 -6 -8 -12 0 -7 -16 -29 -35 -48 -20 -19 -35 -44 -35 -58
0 -19 -4 -22 -22 -17 -18 5 -20 4 -8 -4 11 -8 12 -11 2 -11 -9 0 -11 -7 -7
-20 4 -14 2 -20 -9 -20 -8 0 -17 -13 -21 -31 -4 -17 -16 -40 -28 -52 -14 -14
-18 -15 -14 -5 4 12 1 14 -14 11 -20 -6 -23 -12 -13 -37 5 -13 9 -14 20 -5 8
6 14 8 14 4 0 -5 -26 -33 -57 -62 -32 -30 -51 -51 -42 -48 10 4 20 1 24 -5 3
-6 3 -10 -2 -9 -25 4 -32 -4 -30 -36 1 -19 -2 -33 -8 -32 -5 1 -8 9 -7 16 3
12 1 13 -12 2 -10 -8 -13 -24 -11 -47 3 -19 1 -34 -3 -34 -4 0 -9 -14 -10 -32
-2 -18 -8 -35 -14 -39 -6 -4 -8 -11 -4 -17 3 -6 0 -17 -9 -25 -8 -8 -19 -36
-25 -62 -6 -26 -16 -57 -22 -69 -11 -21 -13 -29 -23 -96 -3 -19 -12 -40 -20
-46 -9 -6 -13 -22 -10 -42 3 -23 0 -30 -9 -26 -15 6 -28 -39 -28 -98 0 -21 -3
-38 -7 -38 -4 0 -14 -19 -21 -42 -8 -24 -21 -56 -30 -73 -25 -45 -30 -76 -20
-120 6 -25 5 -44 0 -49 -7 -7 -10 -5 -10 3 0 7 -4 9 -10 6 -14 -9 -12 -21 6
-39 14 -15 14 -16 0 -16 -9 0 -16 -6 -16 -14 0 -7 -7 -19 -15 -26 -16 -13 -21
-35 -6 -26 4 3 11 -20 14 -52 3 -32 12 -61 21 -67 10 -8 11 -16 4 -29 -8 -14
-6 -18 10 -23 12 -3 21 -12 21 -21 0 -10 3 -32 7 -50 5 -26 9 -30 20 -21 21
17 18 -8 -3 -29 -15 -15 -15 -17 -1 -20 9 -2 19 -14 22 -28 4 -13 13 -24 21
-24 8 0 24 -9 34 -19 18 -18 20 -18 26 -3 5 13 8 14 14 3 5 -8 11 -9 15 -3 12
19 44 0 53 -31 7 -26 13 -31 33 -29 14 2 30 8 36 13 12 10 54 1 54 -12 0 -12
37 -11 45 1 3 6 17 10 31 10 18 0 24 -5 24 -21 0 -16 -4 -19 -22 -14 -22 7
-22 7 -4 -8 17 -12 22 -12 34 -1 7 8 20 14 28 14 8 0 14 5 14 10 0 6 -9 10
-20 10 -24 0 -27 15 -4 24 24 9 46 7 39 -4 -4 -6 10 -10 34 -10 30 0 41 4 41
15 0 8 9 15 20 15 13 0 20 7 20 19 0 10 7 21 15 25 16 6 10 34 -9 49 -6 5 -2
6 10 2 18 -5 21 -1 19 25 -1 17 5 36 14 43 12 10 13 9 7 -2 -5 -8 -3 -17 5
-22 12 -8 12 -10 0 -18 -7 -5 -10 -14 -7 -20 10 -16 26 -3 27 22 0 18 3 16 15
-10 13 -31 37 -47 32 -21 -2 7 13 17 32 24 39 13 48 28 30 50 -19 21 -7 26 24
10 15 -8 23 -17 18 -20 -6 -3 -8 -15 -5 -26 3 -11 -1 -28 -8 -37 -12 -15 -12
-16 4 -10 10 4 28 7 38 7 20 0 20 1 2 30 -14 25 -15 32 -4 42 10 10 15 10 18
1 2 -7 11 -9 19 -6 7 3 12 8 9 12 -2 4 2 17 10 28 13 18 35 26 110 40 25 4 47
33 40 52 -6 16 23 53 37 45 5 -3 20 1 33 10 22 15 24 14 30 -4 6 -18 18 -25
28 -17 2 1 11 -4 20 -12 9 -7 24 -10 33 -7 9 4 23 1 31 -5 10 -9 19 -9 39 1
19 11 27 11 36 2 20 -20 31 -14 24 13 -5 18 -2 25 8 25 8 0 17 -4 21 -10 3 -5
15 0 26 11 25 25 28 22 32 -22 3 -31 6 -34 31 -31 15 2 34 -2 42 -9 11 -9 18
-8 31 2 14 12 16 12 8 0 -5 -9 0 -20 16 -32 13 -10 18 -19 12 -19 -8 0 -13
-13 -12 -32 0 -18 3 -27 6 -20 4 10 8 10 19 1 10 -8 14 -8 14 0 0 6 5 11 10
11 7 0 7 -7 0 -21 -7 -11 -9 -28 -6 -36 4 -9 1 -22 -6 -30 -9 -11 -8 -21 6
-44 14 -24 15 -33 6 -44 -9 -11 -9 -15 -1 -15 6 0 15 8 18 18 11 28 26 32 38
9 9 -17 8 -24 -4 -33 -8 -6 -16 -28 -17 -48 -3 -32 0 -36 19 -35 25 0 69 17
50 18 -21 1 -15 28 7 34 20 5 45 -15 33 -26 -3 -4 -1 -7 6 -7 7 0 9 -5 5 -12
-4 -7 -3 -8 5 -4 7 4 10 13 8 19 -4 14 58 57 83 57 10 0 20 -8 23 -17 3 -14 7
-11 16 12 7 16 16 32 20 35 4 3 20 22 35 43 16 20 35 37 42 37 8 0 14 7 14 15
0 8 7 15 16 15 8 0 12 5 9 10 -8 13 5 35 14 22 3 -5 16 -12 28 -16 18 -6 25
-2 35 19 10 22 9 28 -3 35 -12 8 -10 17 11 55 14 26 30 43 37 40 7 -2 13 1 13
8 0 8 4 7 10 -3 12 -19 22 -8 26 31 3 21 -2 39 -13 51 -15 17 -15 18 1 18 9 0
15 4 12 8 -3 5 4 23 15 40 10 18 19 39 19 48 0 8 7 17 16 21 8 3 13 12 9 20
-3 8 0 32 6 54 13 42 39 61 39 29 0 -11 5 -20 10 -20 6 0 10 12 10 28 0 17 13
42 35 66 32 36 39 49 37 67 -1 3 5 23 13 45 9 26 14 32 15 17 0 -12 5 -23 11
-25 6 -2 15 -41 20 -87 5 -46 17 -116 26 -155 23 -104 13 -261 -31 -456 -68
-300 -97 -358 -201 -397 -221 -83 -309 -121 -460 -194 -93 -45 -213 -97 -265
-115 l-95 -33 -34 40 c-59 70 -103 82 -210 55 -108 -28 -251 -39 -337 -26 -92
14 -122 24 -130 45 -4 9 28 53 88 122 137 157 178 212 178 239 0 33 -42 74
-76 74 -30 0 -35 -5 -184 -185 -93 -112 -168 -178 -252 -221 -44 -22 -58 -24
-208 -24 -192 0 -242 13 -347 90 -97 71 -114 89 -150 161 -29 57 -38 95 -62
234 -8 51 3 151 28 240 11 38 31 115 45 170 55 224 127 441 186 560 54 111
122 280 165 415 10 30 37 91 60 135 24 44 57 114 75 157 17 42 66 129 108 195
43 65 97 153 120 195 28 50 78 114 140 180 53 57 122 137 153 178 31 41 67 85
80 96 31 28 227 154 239 154 6 0 10 5 10 11 0 5 5 7 10 4 6 -4 -6 -17 -25 -31z
m5591 -440 c43 -47 97 -95 119 -106 86 -45 330 -247 387 -323 21 -28 54 -88
74 -135 20 -47 70 -155 112 -240 67 -137 80 -174 119 -335 24 -99 61 -238 83
-310 21 -71 56 -193 77 -270 l38 -140 0 -220 c0 -217 0 -221 -28 -290 -15 -39
-40 -128 -56 -199 -19 -85 -37 -139 -52 -160 -57 -75 -111 -164 -128 -211 -40
-106 -159 -334 -201 -386 -54 -64 -263 -275 -340 -341 l-55 -47 -6 162 c-9
241 -23 306 -94 447 -47 94 -112 191 -232 348 l-94 123 78 82 c75 79 81 88
155 258 42 97 85 198 94 225 9 27 22 61 30 76 26 49 46 121 41 145 -4 22 -3
23 17 9 20 -12 24 -12 34 2 10 15 11 14 11 -5 1 -12 6 -25 13 -29 7 -5 4 -10
-10 -15 -12 -5 -22 -17 -22 -27 0 -10 -5 -23 -12 -30 -17 -17 21 -45 39 -30 9
7 17 7 28 -2 20 -17 19 -54 -2 -71 -15 -13 -16 -11 -9 14 3 15 3 27 0 27 -13
0 -33 -35 -34 -56 0 -12 -6 -24 -14 -27 -16 -7 -18 -77 -2 -77 16 0 36 -49 24
-56 -5 -3 -7 -17 -4 -30 4 -14 2 -24 -4 -24 -6 0 -8 5 -5 10 3 6 1 10 -4 10
-6 0 -11 -9 -11 -21 0 -11 4 -17 10 -14 13 8 60 -24 60 -41 0 -8 5 -14 12 -14
6 0 9 3 6 6 -6 6 35 54 46 54 12 0 6 -38 -6 -43 -8 -3 -7 -6 4 -6 9 -1 20 8
23 19 7 22 25 27 25 8 0 -7 7 -2 16 11 11 15 23 21 36 18 11 -3 21 0 25 9 4
10 9 12 18 4 9 -7 16 -6 25 5 10 12 15 13 21 4 4 -7 27 -12 50 -13 40 0 44 2
42 22 -2 14 6 28 22 38 31 21 39 15 26 -20 -7 -17 -7 -26 0 -26 5 0 14 10 19
23 6 17 4 26 -12 40 -23 19 -30 57 -13 70 6 5 4 12 -7 21 -10 7 -18 26 -17 42
0 27 1 28 9 7 10 -23 30 -32 30 -12 0 5 -4 7 -10 4 -5 -3 -10 -2 -10 3 0 6 7
13 16 16 11 4 14 12 9 24 -4 9 -8 23 -8 30 0 7 -7 11 -16 7 -13 -4 -12 -2 1 8
10 8 20 31 23 52 2 20 9 42 14 49 5 6 12 33 16 59 4 27 13 51 20 53 12 5 25
78 30 169 2 22 6 78 9 125 9 107 8 132 -4 140 -6 3 -4 26 5 60 10 39 11 58 3
67 -5 7 -7 24 -4 39 5 19 4 24 -6 18 -11 -6 -11 -5 0 8 10 13 10 17 -3 22 -8
3 -15 12 -15 19 0 8 -7 20 -16 28 -8 7 -13 21 -11 31 6 23 -14 68 -30 68 -7 0
-13 2 -13 4 0 2 -3 12 -7 22 -5 13 -3 15 8 10 8 -4 5 1 -6 11 -11 10 -21 25
-23 32 -2 8 -12 25 -23 39 -10 14 -19 28 -19 33 0 4 -13 23 -30 41 -16 18 -30
40 -30 50 0 10 -4 18 -10 18 -5 0 -10 8 -10 17 0 21 -60 77 -101 93 -21 9 -29
19 -29 36 0 17 -8 28 -25 34 -14 5 -25 14 -25 19 0 5 -8 12 -18 15 -10 4 -24
22 -31 41 -7 20 -21 41 -32 48 -10 6 -19 20 -19 29 0 10 -4 18 -10 18 -5 0
-10 5 -10 10 0 6 -8 19 -17 29 -34 37 -40 48 -54 87 -7 21 -26 57 -42 80 -15
22 -30 54 -32 70 -2 16 -4 31 -4 33 -1 2 -9 -3 -18 -10 -12 -10 -14 -10 -9 -1
4 7 1 15 -8 18 -9 3 -16 17 -16 29 0 13 -3 25 -7 27 -16 7 -66 68 -57 68 6 0
46 -39 90 -86z m-4046 -1198 c0 -15 -7 -26 -20 -29 -24 -6 -25 1 -4 31 19 28
24 28 24 -2z m-203 -163 c-3 -10 -5 -4 -5 12 0 17 2 24 5 18 2 -7 2 -21 0 -30z
m303 5 c0 -11 -28 -10 -35 1 -3 6 4 9 15 8 11 -1 20 -5 20 -9z m1314 -87 c3
-5 -1 -11 -9 -14 -9 -4 -12 -1 -8 9 6 16 10 17 17 5z m2315 -151 c11 -5 19
-20 19 -35 0 -21 -9 -31 -21 -22 -2 1 -12 -5 -22 -13 -16 -14 -17 -13 -11 8 6
19 4 22 -18 22 -34 0 -33 16 2 34 33 18 29 18 51 6z m-16 -84 c10 3 17 1 17
-5 0 -10 -22 -16 -44 -12 -5 1 -6 -6 -2 -15 7 -19 -10 -44 -30 -44 -20 0 -17
18 4 23 14 3 13 6 -8 15 -18 8 -20 11 -7 11 19 1 21 9 8 31 -16 25 0 32 24 10
13 -12 28 -18 38 -14z m65 -40 c2 -15 -2 -33 -8 -41 -8 -9 -8 -14 0 -17 7 -2
8 -11 4 -23 -8 -19 -8 -18 -14 4 -4 18 -16 27 -40 34 l-34 9 35 33 c40 38 53
39 57 1z m-58 -66 c0 -5 -7 -10 -16 -10 -8 0 -12 5 -9 10 3 6 10 10 16 10 5 0
9 -4 9 -10z m-489 -95 c1 -17 -18 -17 -25 0 -4 11 -1 15 10 13 8 -2 15 -7 15
-13z m16 -51 c-9 -9 -28 6 -21 18 4 6 10 6 17 -1 6 -6 8 -13 4 -17z m1048 17
c3 -5 1 -12 -5 -16 -5 -3 -10 1 -10 9 0 18 6 21 15 7z m-45 -11 c0 -5 -4 -10
-10 -10 -5 0 -10 5 -10 10 0 6 5 10 10 10 6 0 10 -4 10 -10z m-6109 -42 c-5
-33 -5 -33 -10 -6 -5 21 -9 25 -21 18 -19 -12 -30 -13 -30 -1 0 10 51 31 61
25 3 -2 3 -18 0 -36z m219 38 c0 -2 -7 -6 -15 -10 -8 -3 -15 -1 -15 4 0 6 7
10 15 10 8 0 15 -2 15 -4z m4836 -4 c-2 -4 2 -16 10 -27 14 -19 16 -19 25 -3
9 16 11 16 28 -1 23 -23 37 -61 22 -61 -5 0 -13 5 -16 10 -4 7 -12 7 -24 0
-10 -5 -21 -6 -25 -3 -3 3 -6 -1 -6 -9 0 -9 9 -18 20 -21 11 -3 20 -9 20 -14
0 -11 -41 -11 -58 1 -8 5 -18 4 -25 -3 -7 -7 -14 -5 -23 7 -16 21 -18 36 -3
26 6 -3 15 0 20 7 8 12 11 12 18 -1 6 -8 13 -11 16 -8 11 11 -5 28 -26 28 -10
0 -19 5 -19 10 0 6 9 10 20 10 11 0 20 5 20 10 0 6 -7 10 -15 10 -20 0 -19 17
3 29 21 13 25 13 18 3z m-5786 -202 c0 -5 -4 -10 -10 -10 -5 0 -10 5 -10 10 0
6 5 10 10 10 6 0 10 -4 10 -10z m5650 0 c0 -5 -5 -10 -11 -10 -5 0 -7 5 -4 10
3 6 8 10 11 10 2 0 4 -4 4 -10z m140 -26 c0 -8 -5 -12 -10 -9 -6 4 -8 11 -5
16 9 14 15 11 15 -7z m1390 6 c0 -5 -5 -10 -11 -10 -5 0 -7 5 -4 10 3 6 8 10
11 10 2 0 4 -4 4 -10z m-6845 -10 c3 -5 1 -10 -4 -10 -6 0 -11 5 -11 10 0 6 2
10 4 10 3 0 8 -4 11 -10z m3218 -15 c-3 -8 -9 -15 -14 -15 -10 0 -12 24 -3 33
11 11 24 -3 17 -18z m3620 1 c3 3 10 -3 16 -13 9 -18 6 -20 -25 -20 -29 0 -34
4 -34 24 0 20 3 22 19 14 10 -6 21 -8 24 -5z m-303 -41 c0 -14 -4 -25 -9 -25
-10 0 -21 36 -13 44 12 13 22 5 22 -19z m225 5 c3 -5 1 -10 -4 -10 -6 0 -11 5
-11 10 0 6 2 10 4 10 3 0 8 -4 11 -10z m-185 -44 c0 -3 -4 -8 -10 -11 -5 -3
-10 -1 -10 4 0 6 5 11 10 11 6 0 10 -2 10 -4z m-30 -25 c0 -6 -4 -13 -10 -16
-5 -3 -10 1 -10 9 0 9 5 16 10 16 6 0 10 -4 10 -9z m-1730 -302 c0 -5 -4 -9
-10 -9 -5 0 -10 7 -10 16 0 8 5 12 10 9 6 -3 10 -10 10 -16z"/>
<path d="M4070 6410 c0 -5 5 -10 10 -10 6 0 10 5 10 10 0 6 -4 10 -10 10 -5 0
-10 -4 -10 -10z"/>
<path d="M4088 6383 c7 -3 16 -2 19 1 4 3 -2 6 -13 5 -11 0 -14 -3 -6 -6z"/>
<path d="M3170 6167 c0 -8 7 -14 15 -14 8 0 15 6 15 14 0 7 -7 13 -15 13 -8 0
-15 -6 -15 -13z"/>
<path d="M3976 6123 c-6 -14 -5 -15 5 -6 7 7 10 15 7 18 -3 3 -9 -2 -12 -12z"/>
<path d="M2410 5941 c0 -14 18 -23 31 -15 8 4 7 9 -2 15 -18 11 -29 11 -29 0z"/>
<path d="M2454 5904 c3 -9 6 -18 6 -20 0 -2 7 -4 15 -4 13 0 13 3 3 20 -15 24
-33 27 -24 4z"/>
<path d="M2420 5896 c0 -9 5 -16 10 -16 6 0 10 4 10 9 0 6 -4 13 -10 16 -5 3
-10 -1 -10 -9z"/>
<path d="M3309 5908 c-6 -21 -5 -38 2 -38 5 0 9 5 9 11 0 5 4 7 10 4 6 -3 7 1
4 9 -5 13 -22 22 -25 14z"/>
<path d="M3760 5880 c-9 -6 -10 -10 -3 -10 6 0 15 5 18 10 8 12 4 12 -15 0z"/>
<path d="M3314 5805 c1 -44 9 -58 19 -32 3 8 7 6 12 -6 5 -12 2 -22 -10 -31
-16 -12 -16 -13 -1 -19 9 -4 16 -1 16 5 0 6 9 3 20 -7 20 -18 20 -18 14 13 -4
19 0 42 10 63 19 39 15 46 -16 25 -12 -9 -17 -16 -10 -16 6 0 12 -7 12 -15 0
-21 -19 -19 -26 3 -10 31 -27 62 -34 62 -4 0 -6 -20 -6 -45z"/>
<path d="M8640 6049 c0 -5 5 -7 10 -4 6 3 10 8 10 11 0 2 -4 4 -10 4 -5 0 -10
-5 -10 -11z"/>
<path d="M9080 5540 c0 -5 7 -7 15 -4 8 4 15 8 15 10 0 2 -7 4 -15 4 -8 0 -15
-4 -15 -10z"/>
<path d="M9037 5523 c-12 -12 -7 -22 8 -17 8 4 15 10 15 15 0 11 -14 12 -23 2z"/>
<path d="M8980 5510 c0 -5 4 -10 9 -10 6 0 13 5 16 10 3 6 -1 10 -9 10 -9 0
-16 -4 -16 -10z"/>
<path d="M9030 5369 c0 -5 5 -7 10 -4 6 3 10 8 10 11 0 2 -4 4 -10 4 -5 0 -10
-5 -10 -11z"/>
<path d="M4420 6650 c0 -5 5 -10 10 -10 6 0 10 5 10 10 0 6 -4 10 -10 10 -5 0
-10 -4 -10 -10z"/>
<path d="M4456 6615 c-3 -8 -1 -15 4 -15 6 0 10 7 10 15 0 8 -2 15 -4 15 -2 0
-6 -7 -10 -15z"/>
<path d="M4702 6053 c6 -7 14 -10 19 -7 15 9 10 20 -10 20 -15 0 -17 -3 -9
-13z"/>
<path d="M5250 5739 c0 -5 5 -7 10 -4 6 3 10 8 10 11 0 2 -4 4 -10 4 -5 0 -10
-5 -10 -11z"/>
<path d="M7501 5646 c-10 -12 -8 -13 8 -9 12 3 18 9 15 14 -7 12 -10 11 -23
-5z"/>
<path d="M7120 5520 c0 -5 5 -10 10 -10 6 0 10 5 10 10 0 6 -4 10 -10 10 -5 0
-10 -4 -10 -10z"/>
<path d="M6716 5477 c3 -10 9 -15 12 -12 3 3 0 11 -7 18 -10 9 -11 8 -5 -6z"/>
<path d="M7443 4766 l-28 -24 18 -79 c10 -43 20 -92 23 -109 l6 -31 -202 5
c-128 3 -221 1 -253 -6 -60 -13 -175 -16 -229 -6 -32 5 -52 -1 -132 -40 -52
-25 -99 -46 -104 -46 -6 0 -33 -16 -62 -36 -29 -20 -80 -49 -115 -64 -44 -20
-65 -36 -70 -52 -4 -12 -23 -40 -41 -60 -18 -21 -36 -53 -40 -75 -4 -21 -13
-52 -20 -70 -12 -27 -12 -34 2 -47 8 -9 19 -16 24 -16 11 0 40 29 40 41 0 5 6
9 14 9 7 0 35 11 61 25 26 14 49 24 51 22 2 -2 -1 -18 -7 -36 -15 -43 -7 -137
15 -184 10 -21 38 -59 62 -86 55 -61 173 -111 279 -118 67 -5 72 -4 115 29 24
18 94 56 155 83 99 45 113 55 143 99 29 43 32 56 32 121 0 40 -5 96 -10 125
-11 59 -67 151 -106 177 -41 26 -12 33 154 33 121 0 161 3 188 16 19 9 41 14
49 10 26 -10 50 -62 64 -139 11 -64 11 -88 -4 -183 -33 -216 -31 -213 -163
-342 -151 -148 -299 -243 -442 -286 -74 -22 -247 -46 -333 -46 -57 0 -80 5
-128 30 -32 16 -84 37 -116 46 -44 12 -72 29 -113 68 -30 28 -97 87 -147 130
-51 43 -93 82 -93 87 0 4 -7 14 -15 22 -41 42 -145 211 -161 263 -21 68 -21
203 1 306 15 72 7 103 -29 119 -35 16 -73 3 -91 -31 -22 -43 -37 -167 -39
-317 0 -73 -3 -133 -6 -133 -3 0 -17 8 -30 18 -20 14 -57 18 -195 24 -93 3
-200 10 -237 13 -64 7 -71 6 -143 -29 -42 -19 -89 -45 -105 -56 -36 -25 -54
-26 -41 -2 25 47 53 225 58 375 8 201 4 209 -90 222 -60 8 -75 -10 -57 -65 19
-57 7 -299 -20 -410 -13 -54 -45 -133 -88 -218 -60 -121 -71 -136 -117 -166
-202 -134 -260 -160 -402 -181 -129 -20 -166 -19 -211 4 -35 18 -99 38 -151
48 -40 7 -87 29 -148 71 -32 21 -77 49 -101 63 -31 17 -57 45 -90 95 -44 67
-102 168 -102 179 0 3 -10 26 -21 52 -12 27 -27 65 -34 85 l-14 37 52 24 c29
14 84 36 122 50 39 14 95 36 125 50 55 24 120 41 120 31 0 -3 -11 -20 -25 -38
-34 -45 -55 -108 -62 -191 -12 -151 29 -191 290 -277 99 -32 131 -39 171 -34
85 9 170 75 204 156 7 19 20 42 27 50 15 16 73 173 84 225 l7 29 22 -22 c12
-12 36 -28 54 -36 18 -8 51 -30 72 -50 22 -20 43 -36 47 -36 36 0 59 98 33
137 -32 50 -142 136 -240 189 -38 20 -81 48 -95 61 -52 47 -208 66 -379 45
-130 -16 -262 -42 -276 -53 -7 -6 -79 -33 -160 -60 -81 -27 -163 -58 -182 -69
-19 -12 -37 -18 -41 -15 -3 4 -6 56 -6 117 0 108 -1 111 -27 131 -35 26 -73
17 -94 -25 -12 -23 -17 -65 -19 -161 -2 -115 -5 -131 -21 -140 -57 -30 -144
-141 -144 -184 0 -13 9 -32 20 -43 32 -32 66 -25 111 20 22 22 44 40 49 40 11
0 55 -67 79 -120 9 -20 30 -58 47 -85 17 -28 47 -78 68 -113 51 -85 107 -144
169 -177 28 -16 85 -50 125 -76 69 -45 155 -79 201 -79 11 0 33 -13 48 -29 18
-19 42 -32 66 -35 21 -4 48 -11 59 -17 13 -7 42 -9 77 -4 31 4 103 10 161 13
119 8 177 32 240 97 19 20 64 50 100 68 41 20 92 59 140 105 41 41 94 82 118
93 24 10 54 32 67 48 28 32 82 61 116 61 12 0 58 18 101 40 78 41 80 41 161
35 45 -3 120 -7 167 -9 93 -4 132 -17 155 -52 8 -12 35 -32 59 -45 38 -18 48
-20 61 -9 8 7 17 11 18 9 2 -2 18 -27 35 -55 29 -46 215 -238 287 -296 99 -80
277 -177 363 -198 38 -9 65 -9 95 -2 23 5 96 18 162 27 273 40 367 68 509 154
34 20 79 42 101 49 53 15 159 111 190 171 13 25 38 59 55 75 54 50 79 115 100
259 11 73 23 177 26 232 4 55 11 106 17 113 14 18 44 15 76 -9 58 -43 130 9
112 80 -8 31 -90 74 -189 100 l-64 16 -29 120 c-35 140 -43 159 -76 174 -33
15 -38 14 -70 -13z"/>
<path d="M5120 3498 c-70 -75 -94 -168 -62 -240 17 -39 29 -50 84 -77 35 -17
86 -34 114 -37 44 -6 55 -3 73 15 24 24 29 82 8 99 -7 6 -34 16 -59 21 -58 13
-98 31 -98 44 0 5 16 35 35 67 39 64 42 85 19 118 -24 35 -76 30 -114 -10z"/>
<path d="M6041 2874 c-12 -15 -21 -33 -21 -40 0 -8 -14 -26 -32 -41 -17 -16
-58 -52 -91 -81 -57 -52 -144 -102 -179 -102 -9 0 -52 -14 -95 -32 l-78 -31
-105 11 c-58 7 -123 12 -145 12 -38 0 -128 25 -215 60 -25 10 -57 22 -71 28
-15 6 -46 34 -70 63 -24 29 -54 63 -66 76 -42 45 -115 18 -115 -42 0 -34 43
-94 117 -163 49 -45 80 -64 148 -89 47 -18 96 -35 109 -37 13 -3 41 -12 63
-20 22 -8 68 -15 103 -16 35 0 105 -5 156 -11 l92 -11 151 51 c182 59 217 79
331 182 93 85 132 142 132 195 0 62 -80 88 -119 38z"/>
</g>
</svg>
